<?xml version="1.0" standalone="no"?><!DOCTYPE svg PUBLIC "-//W3C//DTD SVG 1.1//EN" "http://www.w3.org/Graphics/SVG/1.1/DTD/svg11.dtd"><svg t="1665867718034" class="icon" viewBox="0 0 1024 1024" version="1.1" xmlns="http://www.w3.org/2000/svg" p-id="8945" xmlns:xlink="http://www.w3.org/1999/xlink" width="200" height="200"><path d="M512 512m-409.6 0a409.6 409.6 0 1 0 819.2 0 409.6 409.6 0 1 0-819.2 0Z" fill="#AB7A14" p-id="8946"></path><path d="M512 512m-393.216 0a393.216 393.216 0 1 0 786.432 0 393.216 393.216 0 1 0-786.432 0Z" fill="#84B50E" p-id="8947"></path><path d="M512 908.41088c-218.58304 0-396.41088-177.82784-396.41088-396.41088S293.41696 115.58912 512 115.58912 908.41088 293.41696 908.41088 512 730.58304 908.41088 512 908.41088z m0-786.432C296.93952 121.97888 121.97888 296.93952 121.97888 512c0 215.06048 174.96064 390.02112 390.02112 390.02112S902.02112 727.06048 902.02112 512c0-215.06048-174.96064-390.02112-390.02112-390.02112z" fill="#394611" p-id="8948"></path><path d="M834.70336 568.89344l-159.86688-36.90496-40.0384-9.23648 41.04192-2.17088 163.84-8.58112-163.84-8.58112-41.04192-2.17088 40.0384-9.23648 159.86688-36.90496-162.83648 19.98848-40.81664 4.99712 37.84704-16.05632 151.01952-64.1024-156.89728 47.96416-39.30112 12.00128 34.46784-22.38464L795.77088 348.16l-146.18624 74.48576-36.61824 18.65728 30.06464-28.03712 119.99232-111.90272-131.03104 98.73408-32.82944 24.73984 24.73984-32.82944 98.73408-131.03104-111.90272 119.99232-28.03712 30.06464 18.65728-36.61824L675.84 228.22912l-89.35424 137.58464-22.38464 34.46784 12.00128-39.30112 47.96416-156.89728-64.1024 151.01952-16.05632 37.84704 4.99712-40.81664 19.98848-162.83648-36.90496 159.86688-9.23648 40.0384-2.17088-41.04192L512 184.32l-8.58112 163.84-2.17088 41.04192-9.23648-40.0384-36.90496-159.86688 19.98848 162.83648 4.99712 40.81664-16.05632-37.84704-64.1024-151.01952 47.96416 156.89728 12.00128 39.30112-22.38464-34.46784L348.16 228.22912l74.48576 146.18624 18.65728 36.61824-28.03712-30.06464-111.90272-119.99232 98.73408 131.03104 24.73984 32.82944-32.82944-24.73984-131.03104-98.73408 119.99232 111.90272 30.06464 28.03712-36.61824-18.65728L228.22912 348.16l137.58464 89.35424 34.46784 22.38464-39.30112-12.00128-156.89728-47.96416 151.01952 64.1024 37.84704 16.05632-40.81664-4.99712-162.83648-19.98848 159.86688 36.90496 40.0384 9.23648-41.04192 2.17088L184.32 512l163.84 8.58112 41.04192 2.17088-40.0384 9.23648-159.86688 36.90496 162.83648-19.98848 40.81664-4.99712-37.84704 16.05632-151.01952 64.1024 156.89728-47.96416 39.30112-12.00128-34.46784 22.38464L228.22912 675.84l146.18624-74.48576 36.61824-18.65728-30.06464 28.03712-119.99232 111.90272 131.03104-98.73408 32.82944-24.73984-24.73984 32.82944-98.73408 131.03104 111.90272-119.99232 28.03712-30.06464-18.65728 36.61824L348.16 795.77088l89.35424-137.58464 22.38464-34.46784-12.00128 39.30112-47.96416 156.89728 64.1024-151.01952 16.05632-37.84704-4.99712 40.81664-19.98848 162.83648 36.90496-159.86688 9.23648-40.0384 2.17088 41.04192 8.58112 163.84 8.58112-163.84 2.17088-41.04192 9.23648 40.0384 36.90496 159.86688-19.98848-162.83648-4.99712-40.81664 16.05632 37.84704 64.1024 151.01952-47.96416-156.89728-12.00128-39.30112 22.38464 34.46784L675.84 795.77088l-74.48576-146.18624-18.65728-36.61824 28.03712 30.06464 111.90272 119.99232-98.73408-131.03104-24.73984-32.82944 32.82944 24.73984 131.03104 98.73408-119.99232-111.90272-30.06464-28.03712 36.61824 18.65728L795.77088 675.84l-137.58464-89.35424-34.46784-22.38464 39.30112 12.00128 156.89728 47.96416-151.01952-64.1024-37.84704-16.05632 40.81664 4.99712z" fill="#C7E162" p-id="8949"></path><path d="M512 512m-409.6 0a409.6 409.6 0 1 0 819.2 0 409.6 409.6 0 1 0-819.2 0Z" fill="#AB7A14" p-id="8950"></path><path d="M512 512m-393.216 0a393.216 393.216 0 1 0 786.432 0 393.216 393.216 0 1 0-786.432 0Z" fill="#84B50E" p-id="8951"></path><path d="M512 908.41088c-218.58304 0-396.41088-177.82784-396.41088-396.41088S293.41696 115.58912 512 115.58912 908.41088 293.41696 908.41088 512 730.58304 908.41088 512 908.41088z m0-786.432C296.93952 121.97888 121.97888 296.93952 121.97888 512c0 215.06048 174.96064 390.02112 390.02112 390.02112S902.02112 727.06048 902.02112 512c0-215.06048-174.96064-390.02112-390.02112-390.02112z" fill="#394611" p-id="8952"></path><path d="M212.72576 617.55392c-32.48128 11.776-67.87072-8.47872-73.91232-42.496-31.4368-177.33632 68.11648-356.90496 243.24096-420.37248s366.592 10.67008 456.04864 166.99392c17.16224 29.98272 2.94912 68.21888-29.53216 79.9744L212.72576 617.55392z" fill="#A9C824" p-id="8953"></path><path d="M834.70336 568.89344l-159.86688-36.90496-40.0384-9.23648 41.04192-2.17088 163.84-8.58112-163.84-8.58112-41.04192-2.17088 40.0384-9.23648 159.86688-36.90496-162.83648 19.98848-40.81664 4.99712 37.84704-16.05632 151.01952-64.1024-156.89728 47.96416-39.30112 12.00128 34.46784-22.38464L795.77088 348.16l-146.18624 74.48576-36.61824 18.65728 30.06464-28.03712 119.99232-111.90272-131.03104 98.73408-32.82944 24.73984 24.73984-32.82944 98.73408-131.03104-111.90272 119.99232-28.03712 30.06464 18.65728-36.61824L675.84 228.22912l-89.35424 137.58464-22.38464 34.46784 12.00128-39.30112 47.96416-156.89728-64.1024 151.01952-16.05632 37.84704 4.99712-40.81664 19.98848-162.83648-36.90496 159.86688-9.23648 40.0384-2.17088-41.04192L512 184.32l-8.58112 163.84-2.17088 41.04192-9.23648-40.0384-36.90496-159.86688 19.98848 162.83648 4.99712 40.81664-16.05632-37.84704-64.1024-151.01952 47.96416 156.89728 12.00128 39.30112-22.38464-34.46784L348.16 228.22912l74.48576 146.18624 18.65728 36.61824-28.03712-30.06464-111.90272-119.99232 98.73408 131.03104 24.73984 32.82944-32.82944-24.73984-131.03104-98.73408 119.99232 111.90272 30.06464 28.03712-36.61824-18.65728L228.22912 348.16l137.58464 89.35424 34.46784 22.38464-39.30112-12.00128-156.89728-47.96416 151.01952 64.1024 37.84704 16.05632-40.81664-4.99712-162.83648-19.98848 159.86688 36.90496 40.0384 9.23648-41.04192 2.17088L184.32 512l163.84 8.58112 41.04192 2.17088-40.0384 9.23648-159.86688 36.90496 162.83648-19.98848 40.81664-4.99712-37.84704 16.05632-151.01952 64.1024 156.89728-47.96416 39.30112-12.00128-34.46784 22.38464L228.22912 675.84l146.18624-74.48576 36.61824-18.65728-30.06464 28.03712-119.99232 111.90272 131.03104-98.73408 32.82944-24.73984-24.73984 32.82944-98.73408 131.03104 111.90272-119.99232 28.03712-30.06464-18.65728 36.61824L348.16 795.77088l89.35424-137.58464 22.38464-34.46784-12.00128 39.30112-47.96416 156.89728 64.1024-151.01952 16.05632-37.84704-4.99712 40.81664-19.98848 162.83648 36.90496-159.86688 9.23648-40.0384 2.17088 41.04192 8.58112 163.84 8.58112-163.84 2.17088-41.04192 9.23648 40.0384 36.90496 159.86688-19.98848-162.83648-4.99712-40.81664 16.05632 37.84704 64.1024 151.01952-47.96416-156.89728-12.00128-39.30112 22.38464 34.46784L675.84 795.77088l-74.48576-146.18624-18.65728-36.61824 28.03712 30.06464 111.90272 119.99232-98.73408-131.03104-24.73984-32.82944 32.82944 24.73984 131.03104 98.73408-119.99232-111.90272-30.06464-28.03712 36.61824 18.65728L795.77088 675.84l-137.58464-89.35424-34.46784-22.38464 39.30112 12.00128 156.89728 47.96416-151.01952-64.1024-37.84704-16.05632 40.81664 4.99712z" fill="#C7E162" p-id="8954"></path><path d="M529.89952 368.51712c-1.1264 7.10656-5.9392 12.43136-5.9392 12.43136s-3.25632-6.43072-3.33824-13.6192c-0.08192-7.55712 2.62144-12.86144 5.9392-12.43136 3.11296 0.38912 4.5056 6.28736 3.33824 13.6192z" p-id="8955"></path><path d="M489.08288 369.7664c0.88064 7.14752-2.2528 13.59872-2.2528 13.59872s-4.9152-5.28384-6.98368-12.16512c-2.17088-7.22944-1.04448-13.08672 2.2528-13.59872 3.09248-0.47104 6.08256 4.79232 6.98368 12.16512z" p-id="8956"></path><path d="M450.23232 382.30016c2.82624 6.61504 1.61792 13.68064 1.61792 13.68064s-6.18496-3.70688-10.07616-9.74848c-4.096-6.3488-4.62848-12.26752-1.61792-13.68064 2.82624-1.3312 7.14752 2.90816 10.07616 9.74848z" p-id="8957"></path><path d="M416.37888 405.11488c4.56704 5.57056 5.34528 12.6976 5.34528 12.6976s-6.9632-1.8432-12.3904-6.57408c-5.69344-4.95616-7.86432-10.50624-5.34528-12.6976 2.33472-2.048 7.68 0.8192 12.3904 6.57408z" p-id="8958"></path><path d="M390.16448 436.4288c5.91872 4.096 8.66304 10.71104 8.66304 10.71104s-7.20896 0.16384-13.7216-2.8672c-6.84032-3.19488-10.46528-7.90528-8.66304-10.71104 1.69984-2.62144 7.61856-1.35168 13.7216 2.8672z" p-id="8959"></path><path d="M373.69856 473.8048c6.81984 2.29376 11.28448 7.8848 11.28448 7.8848s-6.88128 2.1504-13.98784 1.04448c-7.4752-1.16736-12.24704-4.68992-11.28448-7.8848 0.90112-2.99008 6.94272-3.39968 13.98784-1.04448z" p-id="8960"></path><path d="M368.25088 514.2528c7.18848 0.3072 13.04576 4.44416 13.04576 4.44416s-6.02112 3.97312-13.14816 4.89472c-7.49568 0.96256-13.08672-1.10592-13.04576-4.44416 0.04096-3.11296 5.71392-5.20192 13.14816-4.89472z" p-id="8961"></path><path d="M374.23104 554.65984c7.00416-1.72032 13.76256 0.65536 13.76256 0.65536s-4.66944 5.48864-11.264 8.35584c-6.94272 2.99008-12.86144 2.56-13.76256-0.65536-0.8192-3.01056 4.05504-6.59456 11.264-8.35584z" p-id="8962"></path><path d="M391.20896 591.79008c6.2464-3.584 13.39392-3.19488 13.39392-3.19488s-2.9696 6.57408-8.4992 11.14112c-5.8368 4.8128-11.65312 6.0416-13.39392 3.19488-1.6384-2.64192 2.048-7.43424 8.4992-11.14112z" p-id="8963"></path><path d="M417.81248 622.75584c4.99712-5.18144 11.9808-6.77888 11.9808-6.77888s-1.024 7.14752-5.07904 13.06624c-4.25984 6.22592-9.5232 9.03168-11.9808 6.77888-2.31424-2.08896-0.08192-7.72096 5.07904-13.06624z" p-id="8964"></path><path d="M451.97312 645.14048c3.3792-6.36928 9.64608-9.85088 9.64608-9.85088s1.00352 7.14752-1.24928 13.96736c-2.37568 7.168-6.63552 11.32544-9.64608 9.85088-2.80576-1.37216-2.23232-7.41376 1.24928-13.96736z" p-id="8965"></path><path d="M491.008 657.14176c1.47456-7.04512 6.53312-12.14464 6.53312-12.14464s2.94912 6.57408 2.68288 13.76256c-0.28672 7.55712-3.23584 12.71808-6.53312 12.14464-3.09248-0.53248-4.21888-6.49216-2.68288-13.76256z" p-id="8966"></path><path d="M531.82464 657.85856c-0.53248-7.18848 2.90816-13.47584 2.90816-13.47584s4.64896 5.50912 6.38976 12.4928c1.82272 7.33184 0.4096 13.1072-2.90816 13.47584-3.09248 0.3072-5.8368-5.09952-6.38976-12.4928z" p-id="8967"></path><path d="M571.24864 647.18848c-2.51904-6.7584-0.96256-13.74208-0.96256-13.74208s6.00064 3.9936 9.60512 10.21952c3.7888 6.53312 4.03456 12.4928 0.96256 13.74208-2.88768 1.18784-7.02464-3.25632-9.60512-10.21952z" p-id="8968"></path><path d="M606.14656 626.01216c-4.28032-5.79584-4.73088-12.94336-4.73088-12.94336s6.88128 2.17088 12.06272 7.14752c5.44768 5.2224 7.35232 10.87488 4.73088 12.94336-2.43712 1.9456-7.63904-1.16736-12.06272-7.14752z" p-id="8969"></path><path d="M633.81504 595.98848c-5.7344-4.36224-8.13056-11.12064-8.13056-11.12064s7.20896 0.18432 13.57824 3.52256c6.69696 3.50208 10.07616 8.3968 8.13056 11.12064-1.82272 2.53952-7.65952 0.98304-13.57824-3.52256z" p-id="8970"></path><path d="M652.06272 559.45216c-6.71744-2.60096-10.89536-8.41728-10.89536-8.41728s6.98368-1.82272 14.0288-0.38912c7.39328 1.51552 12.02176 5.28384 10.89536 8.41728-1.04448 2.94912-7.10656 3.09248-14.0288 0.38912z" p-id="8971"></path><path d="M659.43552 519.29088c-7.168-0.63488-12.82048-5.05856-12.82048-5.05856s6.20544-3.6864 13.35296-4.25984c7.53664-0.59392 13.0048 1.7408 12.82048 5.05856-0.16384 3.11296-5.9392 4.93568-13.35296 4.25984z" p-id="8972"></path><path d="M655.38048 478.65856c-7.0656 1.37216-13.7216-1.31072-13.7216-1.31072s4.93568-5.26336 11.65312-7.80288c7.0656-2.6624 12.98432-1.9456 13.7216 1.31072 0.69632 3.05152-4.34176 6.38976-11.65312 7.80288z" p-id="8973"></path><path d="M640.22528 440.75008c-6.41024 3.2768-13.53728 2.53952-13.53728 2.53952s3.2768-6.43072 9.03168-10.73152c6.06208-4.52608 11.91936-5.46816 13.53728-2.53952 1.49504 2.74432-2.41664 7.35232-9.03168 10.73152z" p-id="8974"></path><path d="M615.1168 408.55552c-5.24288 4.93568-12.30848 6.20544-12.30848 6.20544s1.35168-7.08608 5.69344-12.82048c4.56704-6.02112 9.9328-8.56064 12.30848-6.20544 2.21184 2.21184-0.26624 7.72096-5.69344 12.82048z" p-id="8975"></path><path d="M582.06208 384.57344c-3.66592 6.18496-10.09664 9.37984-10.09664 9.37984s-0.65536-7.18848 1.92512-13.88544c2.70336-7.04512 7.168-10.99776 10.09664-9.37984 2.72384 1.49504 1.86368 7.49568-1.92512 13.88544z" p-id="8976"></path><path d="M512 512m-123.86304 0a123.86304 123.86304 0 1 0 247.72608 0 123.86304 123.86304 0 1 0-247.72608 0Z" fill="#E8FDA0" p-id="8977"></path><path d="M527.72864 370.76992c-0.57344 3.62496-3.03104 6.3488-3.03104 6.3488s-1.65888-3.2768-1.69984-6.9632c-0.04096-3.85024 1.3312-6.57408 3.03104-6.3488 1.57696 0.2048 2.31424 3.21536 1.69984 6.9632zM487.64928 371.93728c0.45056 3.64544-1.14688 6.94272-1.14688 6.94272s-2.49856-2.70336-3.56352-6.20544c-1.10592-3.6864-0.53248-6.67648 1.14688-6.94272 1.57696-0.24576 3.09248 2.4576 3.56352 6.20544zM450.17088 386.048c1.45408 3.3792 0.8192 6.98368 0.8192 6.98368s-3.15392-1.88416-5.14048-4.97664c-2.08896-3.23584-2.37568-6.26688-0.8192-6.98368 1.4336-0.67584 3.64544 1.49504 5.14048 4.97664zM416.74752 409.10848c2.33472 2.84672 2.72384 6.49216 2.72384 6.49216s-3.56352-0.94208-6.32832-3.35872c-2.90816-2.53952-4.01408-5.36576-2.72384-6.49216 1.20832-1.04448 3.91168 0.4096 6.32832 3.35872zM391.41376 439.95136c3.03104 2.08896 4.42368 5.46816 4.42368 5.46816s-3.6864 0.08192-7.00416-1.47456c-3.50208-1.61792-5.34528-4.03456-4.42368-5.46816 0.86016-1.3312 3.8912-0.67584 7.00416 1.47456zM375.52128 476.54912c3.4816 1.16736 5.75488 4.03456 5.75488 4.03456s-3.52256 1.10592-7.14752 0.53248c-3.80928-0.59392-6.2464-2.39616-5.75488-4.03456 0.47104-1.51552 3.54304-1.7408 7.14752-0.53248zM369.58208 516.34176c3.66592 0.14336 6.656 2.27328 6.656 2.27328s-3.072 2.02752-6.71744 2.49856c-3.82976 0.49152-6.67648-0.57344-6.656-2.27328 0.04096-1.59744 2.92864-2.6624 6.71744-2.49856zM377.1392 555.88864c3.56352-0.88064 7.02464 0.32768 7.02464 0.32768s-2.37568 2.80576-5.75488 4.25984c-3.54304 1.536-6.57408 1.31072-7.02464-0.32768-0.4096-1.51552 2.06848-3.35872 5.75488-4.25984zM394.83392 591.83104c3.19488-1.82272 6.84032-1.6384 6.84032-1.6384s-1.51552 3.35872-4.34176 5.69344c-2.9696 2.4576-5.95968 3.072-6.84032 1.6384-0.83968-1.37216 1.04448-3.80928 4.34176-5.69344zM420.02432 623.4112c2.56-2.64192 6.12352-3.46112 6.12352-3.46112s-0.512 3.64544-2.60096 6.67648c-2.17088 3.1744-4.85376 4.608-6.12352 3.46112-1.18784-1.08544-0.04096-3.95264 2.60096-6.67648zM454.53312 643.8912c1.72032-3.25632 4.9152-5.0176 4.9152-5.0176s0.512 3.64544-0.63488 7.12704c-1.20832 3.66592-3.39968 5.77536-4.9152 5.0176-1.4336-0.7168-1.14688-3.7888 0.63488-7.12704zM493.09696 655.31904c0.75776-3.60448 3.33824-6.18496 3.33824-6.18496s1.49504 3.35872 1.37216 7.02464c-0.14336 3.85024-1.65888 6.49216-3.33824 6.18496-1.57696-0.26624-2.1504-3.29728-1.37216-7.02464zM533.58592 654.70464c-0.26624-3.66592 1.47456-6.88128 1.47456-6.88128s2.37568 2.80576 3.25632 6.36928c0.9216 3.74784 0.2048 6.69696-1.47456 6.88128-1.57696 0.18432-2.9696-2.58048-3.25632-6.36928zM572.33408 645.2224c-1.29024-3.44064-0.49152-7.02464-0.49152-7.02464s3.072 2.048 4.89472 5.2224c1.92512 3.33824 2.06848 6.36928 0.49152 7.02464-1.47456 0.6144-3.56352-1.65888-4.89472-5.2224zM605.9008 622.24384c-2.19136-2.94912-2.41664-6.61504-2.41664-6.61504s3.50208 1.10592 6.16448 3.64544c2.78528 2.6624 3.74784 5.55008 2.41664 6.61504-1.24928 1.00352-3.8912-0.59392-6.16448-3.64544zM632.15616 592.1792c-2.92864-2.23232-4.15744-5.67296-4.15744-5.67296s3.6864 0.1024 6.92224 1.80224c3.42016 1.80224 5.14048 4.3008 4.15744 5.67296-0.9216 1.29024-3.91168 0.49152-6.92224-1.80224zM649.64608 556.35968c-3.42016-1.3312-5.57056-4.3008-5.57056-4.3008s3.56352-0.94208 7.14752-0.2048c3.76832 0.77824 6.144 2.70336 5.57056 4.3008-0.512 1.51552-3.60448 1.57696-7.14752 0.2048zM656.75264 517.0176c-3.66592-0.32768-6.53312-2.58048-6.53312-2.58048s3.15392-1.88416 6.81984-2.17088c3.85024-0.3072 6.63552 0.88064 6.53312 2.58048-0.08192 1.59744-3.03104 2.51904-6.81984 2.17088zM653.63968 476.13952c-3.60448 0.69632-7.00416-0.67584-7.00416-0.67584s2.51904-2.68288 5.95968-3.97312c3.60448-1.35168 6.63552-0.98304 7.00416 0.67584 0.32768 1.536-2.2528 3.23584-5.95968 3.97312zM637.21472 439.7056c-3.2768 1.67936-6.92224 1.29024-6.92224 1.29024s1.67936-3.2768 4.608-5.46816c3.09248-2.31424 6.08256-2.78528 6.92224-1.29024 0.77824 1.37216-1.2288 3.72736-4.608 5.46816zM612.02432 408.3712c-2.68288 2.51904-6.28736 3.1744-6.28736 3.1744s0.69632-3.62496 2.90816-6.53312c2.33472-3.072 5.07904-4.38272 6.28736-3.1744 1.1264 1.10592-0.14336 3.93216-2.90816 6.53312zM580.44416 384.59392c-1.88416 3.15392-5.16096 4.79232-5.16096 4.79232s-0.32768-3.66592 0.98304-7.08608c1.39264-3.60448 3.66592-5.61152 5.16096-4.79232 1.39264 0.77824 0.94208 3.82976-0.98304 7.08608z" fill="#658400" p-id="8978"></path></svg>