<?xml version="1.0" standalone="no"?><!DOCTYPE svg PUBLIC "-//W3C//DTD SVG 1.1//EN" "http://www.w3.org/Graphics/SVG/1.1/DTD/svg11.dtd"><svg t="1665867744554" class="icon" viewBox="0 0 1024 1024" version="1.1" xmlns="http://www.w3.org/2000/svg" p-id="9302" xmlns:xlink="http://www.w3.org/1999/xlink" width="200" height="200"><path d="M633.48736 146.00192l97.97632 65.16736c5.03808 3.35872 9.9328 6.90176 14.66368 10.6496l92.2624 73.05216c69.30432 54.86592 98.89792 145.96096 75.07968 231.07584l-31.70304 113.31584c-1.6384 5.81632-3.50208 11.5712-5.61152 17.24416l-40.96 110.30528c-30.76096 82.86208-108.25728 139.1616-196.56704 142.80704l-117.57568 4.85376c-6.0416 0.24576-12.0832 0.24576-18.1248 0l-117.57568-4.85376c-88.30976-3.64544-165.80608-59.94496-196.56704-142.80704l-40.96-110.30528a222.76096 222.76096 0 0 1-5.61152-17.24416l-31.70304-113.31584c-23.81824-85.11488 5.77536-176.20992 75.07968-231.07584l92.2624-73.05216c4.75136-3.74784 9.6256-7.31136 14.66368-10.6496l97.97632-65.16736c73.60512-48.9472 169.41056-48.9472 242.9952 0z" fill="#6B9519" p-id="9303"></path><path d="M507.61728 525.45536h-34.0992c-119.78752 0-194.6624-142.86848-134.77888-257.14688l17.03936-32.52224 17.03936-32.52224c59.904-114.2784 209.63328-114.2784 269.53728 0l17.03936 32.52224 17.03936 32.52224c59.904 114.2784-14.97088 257.14688-134.77888 257.14688h-34.03776z" fill="#F80E4D" p-id="9304"></path><path d="M521.6256 446.91456v34.0992c0 119.78752-142.86848 194.6624-257.14688 134.77888l-32.52224-17.03936-32.52224-17.03936c-114.2784-59.904-114.2784-209.63328 0-269.53728l32.52224-17.03936 32.52224-17.03936c114.2784-59.904 257.14688 14.97088 257.14688 134.77888v34.03776z" fill="#F80E4D" p-id="9305"></path><path d="M543.88736 559.7184l24.10496 24.10496c84.70528 84.70528 36.63872 238.67392-86.528 277.13536l-35.06176 10.93632-35.06176 10.93632c-123.16672 38.46144-229.04832-67.42016-190.58688-190.58688l10.93632-35.06176 10.93632-35.06176c38.46144-123.16672 192.4096-171.23328 277.13536-86.528l24.12544 24.12544z" fill="#F80E4D" p-id="9306"></path><path d="M481.3824 559.7184l24.10496-24.10496c84.70528-84.70528 238.67392-36.63872 277.13536 86.528l10.93632 35.06176 10.93632 35.06176c38.46144 123.16672-67.42016 229.04832-190.58688 190.58688l-35.06176-10.93632-35.06176-10.93632c-123.16672-38.46144-171.23328-192.4096-86.528-277.13536l24.12544-24.12544z" fill="#F80E4D" p-id="9307"></path><path d="M499.32288 446.91456v-34.0992c0-119.78752 142.86848-194.6624 257.14688-134.77888l32.52224 17.03936 32.52224 17.03936c114.2784 59.904 114.2784 209.63328 0 269.53728l-32.52224 17.03936-32.52224 17.03936c-114.2784 59.904-257.14688-14.97088-257.14688-134.77888v-34.03776z" fill="#F80E4D" p-id="9308"></path><path d="M512 529.46944m-380.928 0a380.928 380.928 0 1 0 761.856 0 380.928 380.928 0 1 0-761.856 0Z" fill="#F80E4D" p-id="9309"></path><path d="M512 914.71872c-212.43904 0-385.24928-172.83072-385.24928-385.24928S299.56096 144.19968 512 144.19968s385.24928 172.83072 385.24928 385.24928S724.43904 914.71872 512 914.71872z m0-761.856c-207.64672 0-376.60672 168.93952-376.60672 376.60672S304.35328 906.05568 512 906.05568s376.58624-168.93952 376.58624-376.60672S719.64672 152.86272 512 152.86272z" fill="#C40C0C" p-id="9310"></path><path d="M512 529.46944m-358.07232 0a358.07232 358.07232 0 1 0 716.14464 0 358.07232 358.07232 0 1 0-716.14464 0Z" fill="#F7F7E7" p-id="9311"></path><path d="M180.30592 644.3008c-13.59872-39.3216-20.41856-81.79712-19.0464-126.0544 5.69344-182.84544 154.25536-332.4928 337.05984-339.43552 147.88608-5.61152 276.3776 80.32256 333.312 205.66016 32.95232 72.54016-1.65888 157.92128-75.83744 187.04384L361.8816 726.24128c-72.8064 28.59008-155.99616-8.04864-181.57568-81.94048z" fill="#FFFFFF" p-id="9312"></path><path d="M449.65888 237.28128c0 8.0896-6.10304 15.50336-11.01824 15.54432-3.15392 0.02048-11.01824-7.4752-11.01824-15.54432 0-8.0896 4.93568-14.6432 11.01824-14.6432 6.08256 0.02048 11.01824 6.57408 11.01824 14.6432zM529.65376 282.66496c0 8.0896-6.10304 15.50336-11.01824 15.54432-3.15392 0.02048-11.01824-7.4752-11.01824-15.54432s4.93568-14.6432 11.01824-14.6432c6.08256 0 11.01824 6.5536 11.01824 14.6432z" fill="#010000" p-id="9313"></path><path d="M425.14432 312.85248c0 8.0896-6.10304 15.50336-11.01824 15.54432-3.15392 0.02048-11.01824-7.4752-11.01824-15.54432s4.93568-14.6432 11.01824-14.6432c6.08256 0 11.01824 6.5536 11.01824 14.6432z" fill="#C5C9B2" p-id="9314"></path><path d="M302.4896 308.44928c0 8.0896-6.10304 15.50336-11.01824 15.54432-3.15392 0.02048-11.01824-7.4752-11.01824-15.54432 0-8.0896 4.93568-14.6432 11.01824-14.6432 6.08256 0.02048 11.01824 6.57408 11.01824 14.6432z" fill="#010000" p-id="9315"></path><path d="M348.5696 388.95616c0 8.0896-6.10304 15.50336-11.01824 15.54432-3.15392 0.02048-11.01824-7.4752-11.01824-15.54432s4.93568-14.6432 11.01824-14.6432c6.08256 0 11.01824 6.5536 11.01824 14.6432z" fill="#C5C9B2" p-id="9316"></path><path d="M491.84768 373.8624c0 8.0896-6.10304 15.50336-11.01824 15.54432-3.15392 0.02048-11.01824-7.4752-11.01824-15.54432s4.93568-14.6432 11.01824-14.6432c6.08256 0 11.01824 6.5536 11.01824 14.6432zM416.58368 392.62208c0 8.0896-6.10304 15.50336-11.01824 15.54432-3.15392 0.02048-11.01824-7.4752-11.01824-15.54432s4.93568-14.6432 11.01824-14.6432c6.08256 0 11.01824 6.5536 11.01824 14.6432z" fill="#010000" p-id="9317"></path><path d="M658.61632 382.6688c0 8.0896-6.10304 15.50336-11.01824 15.54432-3.15392 0.02048-11.01824-7.4752-11.01824-15.54432 0-8.0896 4.93568-14.6432 11.01824-14.6432s11.01824 6.57408 11.01824 14.6432zM741.08928 428.05248c0 8.0896-6.10304 15.50336-11.01824 15.54432-3.15392 0.02048-11.01824-7.4752-11.01824-15.54432s4.93568-14.6432 11.01824-14.6432c6.08256 0 11.01824 6.5536 11.01824 14.6432z" fill="#C5C9B2" p-id="9318"></path><path d="M825.30304 428.05248c0 8.0896-6.10304 15.50336-11.01824 15.54432-3.15392 0.02048-11.01824-7.4752-11.01824-15.54432s4.93568-14.6432 11.01824-14.6432 11.01824 6.5536 11.01824 14.6432zM752.10752 481.62816c0 8.0896-6.10304 15.50336-11.01824 15.54432-3.15392 0.02048-11.01824-7.4752-11.01824-15.54432s4.93568-14.6432 11.01824-14.6432 11.01824 6.5536 11.01824 14.6432zM682.63936 468.93056c0 8.0896-6.10304 15.50336-11.01824 15.54432-3.15392 0.02048-11.01824-7.4752-11.01824-15.54432s4.93568-14.6432 11.01824-14.6432 11.01824 6.57408 11.01824 14.6432zM682.63936 580.95616c0 8.0896-6.10304 15.50336-11.01824 15.54432-3.15392 0.02048-11.01824-7.4752-11.01824-15.54432 0-8.0896 4.93568-14.6432 11.01824-14.6432s11.01824 6.57408 11.01824 14.6432zM814.2848 496.72192c0 8.0896-6.10304 15.50336-11.01824 15.54432-3.15392 0.02048-11.01824-7.4752-11.01824-15.54432s4.93568-14.6432 11.01824-14.6432c6.08256 0 11.01824 6.5536 11.01824 14.6432zM639.03744 458.24c0 8.0896-6.10304 15.50336-11.01824 15.54432-3.15392 0.02048-11.01824-7.4752-11.01824-15.54432 0-8.0896 4.93568-14.6432 11.01824-14.6432 6.08256 0 11.01824 6.5536 11.01824 14.6432zM513.90464 453.8368c0 8.0896-6.10304 15.50336-11.01824 15.54432-3.15392 0.02048-11.01824-7.4752-11.01824-15.54432s4.93568-14.6432 11.01824-14.6432 11.01824 6.57408 11.01824 14.6432zM562.46272 534.34368c0 8.0896-6.10304 15.50336-11.01824 15.54432-3.15392 0.02048-11.01824-7.4752-11.01824-15.54432 0-8.0896 4.93568-14.6432 11.01824-14.6432 6.08256 0 11.01824 6.5536 11.01824 14.6432zM703.2832 519.24992c0 8.0896-6.10304 15.50336-11.01824 15.54432-3.15392 0.02048-11.01824-7.4752-11.01824-15.54432s4.93568-14.6432 11.01824-14.6432 11.01824 6.5536 11.01824 14.6432zM578.12992 488.7552c0 8.0896-6.10304 15.50336-11.01824 15.54432-3.15392 0.02048-11.01824-7.4752-11.01824-15.54432s4.93568-14.6432 11.01824-14.6432 11.01824 6.5536 11.01824 14.6432zM459.89888 438.74304c0 8.0896-6.10304 15.50336-11.01824 15.54432-3.15392 0.02048-11.01824-7.4752-11.01824-15.54432s4.93568-14.6432 11.01824-14.6432c6.08256 0.02048 11.01824 6.57408 11.01824 14.6432zM436.16256 532.52096c0 8.0896-6.10304 15.50336-11.01824 15.54432-3.15392 0.02048-11.01824-7.4752-11.01824-15.54432 0-8.0896 4.93568-14.6432 11.01824-14.6432 6.08256 0 11.01824 6.5536 11.01824 14.6432zM540.69248 358.76864c0 8.0896-6.10304 15.50336-11.01824 15.54432-3.15392 0.02048-11.01824-7.4752-11.01824-15.54432s4.93568-14.6432 11.01824-14.6432 11.01824 6.5536 11.01824 14.6432zM704.69632 358.76864c0 8.0896-6.10304 15.50336-11.01824 15.54432-3.15392 0.02048-11.01824-7.4752-11.01824-15.54432s4.93568-14.6432 11.01824-14.6432 11.01824 6.5536 11.01824 14.6432z" fill="#010000" p-id="9319"></path><path d="M628.0192 538.0096c0 8.0896-6.10304 15.50336-11.01824 15.54432-3.15392 0.02048-11.01824-7.4752-11.01824-15.54432 0-8.0896 4.93568-14.6432 11.01824-14.6432s11.01824 6.5536 11.01824 14.6432z" fill="#C5C9B2" p-id="9320"></path><path d="M384.6144 451.33824c0 8.0896-6.10304 15.50336-11.01824 15.54432-3.15392 0.02048-11.01824-7.4752-11.01824-15.54432 0-8.0896 4.93568-14.6432 11.01824-14.6432 6.08256 0 11.01824 6.5536 11.01824 14.6432z" fill="#010000" p-id="9321"></path><path d="M462.15168 496.72192c0 8.0896-6.10304 15.50336-11.01824 15.54432-3.15392 0.02048-11.01824-7.4752-11.01824-15.54432s4.93568-14.6432 11.01824-14.6432c6.08256 0 11.01824 6.5536 11.01824 14.6432z" fill="#C5C9B2" p-id="9322"></path><path d="M362.57792 526.90944c0 8.0896-6.10304 15.50336-11.01824 15.54432-3.15392 0.02048-11.01824-7.4752-11.01824-15.54432 0-8.0896 4.93568-14.6432 11.01824-14.6432 6.08256 0 11.01824 6.5536 11.01824 14.6432zM237.44512 522.50624c0 8.0896-6.10304 15.50336-11.01824 15.54432-3.15392 0.02048-11.01824-7.4752-11.01824-15.54432 0-8.0896 4.93568-14.6432 11.01824-14.6432s11.01824 6.5536 11.01824 14.6432z" fill="#010000" p-id="9323"></path><path d="M285.98272 603.01312c0 8.0896-6.10304 15.50336-11.01824 15.54432-3.15392 0.02048-11.01824-7.4752-11.01824-15.54432 0-8.0896 4.93568-14.6432 11.01824-14.6432 6.08256 0 11.01824 6.5536 11.01824 14.6432z" fill="#C5C9B2" p-id="9324"></path><path d="M227.20512 596.04992c0 8.0896-6.10304 15.50336-11.01824 15.54432-3.15392 0.02048-11.01824-7.4752-11.01824-15.54432 0-8.0896 4.93568-14.6432 11.01824-14.6432s11.01824 6.57408 11.01824 14.6432z" fill="#010000" p-id="9325"></path><path d="M426.82368 587.91936c0 8.0896-6.10304 15.50336-11.01824 15.54432-3.15392 0.02048-11.01824-7.4752-11.01824-15.54432 0-8.0896 4.93568-14.6432 11.01824-14.6432 6.06208 0 11.01824 6.5536 11.01824 14.6432z" fill="#C5C9B2" p-id="9326"></path><path d="M333.08672 572.8256c0 8.0896-6.10304 15.50336-11.01824 15.54432-3.15392 0.02048-11.01824-7.4752-11.01824-15.54432 0-8.0896 4.93568-14.6432 11.01824-14.6432 6.08256 0 11.01824 6.5536 11.01824 14.6432zM536.4736 577.80224c0 8.0896-6.10304 15.50336-11.01824 15.54432-3.15392 0.02048-11.01824-7.4752-11.01824-15.54432 0-8.0896 4.93568-14.6432 11.01824-14.6432 6.08256 0 11.01824 6.5536 11.01824 14.6432z" fill="#010000" p-id="9327"></path><path d="M642.84672 618.10688c0 8.0896-6.10304 15.50336-11.01824 15.54432-3.15392 0.02048-11.01824-7.4752-11.01824-15.54432s4.93568-14.6432 11.01824-14.6432c6.08256 0 11.01824 6.5536 11.01824 14.6432z" fill="#C5C9B2" p-id="9328"></path><path d="M529.65376 653.35296c0 8.0896-6.10304 15.50336-11.01824 15.54432-3.15392 0.02048-11.01824-7.4752-11.01824-15.54432 0-8.0896 4.93568-14.6432 11.01824-14.6432 6.08256 0 11.01824 6.5536 11.01824 14.6432z" fill="#010000" p-id="9329"></path><path d="M389.28384 648.97024c0 8.0896-6.10304 15.50336-11.01824 15.54432-3.15392 0.02048-11.01824-7.4752-11.01824-15.54432 0-8.0896 4.93568-14.6432 11.01824-14.6432s11.01824 6.5536 11.01824 14.6432zM300.01152 412.61056c0 8.0896-6.10304 15.50336-11.01824 15.54432-3.15392 0.02048-11.01824-7.4752-11.01824-15.54432s4.93568-14.6432 11.01824-14.6432c6.08256 0.02048 11.01824 6.57408 11.01824 14.6432z" fill="#C5C9B2" p-id="9330"></path><path d="M227.20512 431.37024c0 8.0896-6.10304 15.50336-11.01824 15.54432-3.15392 0.02048-11.01824-7.4752-11.01824-15.54432 0-8.0896 4.93568-14.6432 11.01824-14.6432s11.01824 6.5536 11.01824 14.6432z" fill="#010000" p-id="9331"></path><path d="M264.97024 473.66144c0 8.0896-6.10304 15.50336-11.01824 15.54432-3.15392 0.02048-11.01824-7.4752-11.01824-15.54432s4.93568-14.6432 11.01824-14.6432c6.08256 0.02048 11.01824 6.57408 11.01824 14.6432z" fill="#C5C9B2" p-id="9332"></path><path d="M437.84192 729.45664c0 8.0896-6.10304 15.50336-11.01824 15.54432-3.15392 0.02048-11.01824-7.4752-11.01824-15.54432 0-8.0896 4.93568-14.6432 11.01824-14.6432 6.08256 0 11.01824 6.5536 11.01824 14.6432zM514.41664 825.61024c0 8.0896-6.10304 15.50336-11.01824 15.54432-3.15392 0.02048-11.01824-7.4752-11.01824-15.54432 0-8.0896 4.93568-14.6432 11.01824-14.6432 6.08256 0 11.01824 6.5536 11.01824 14.6432z" fill="#010000" p-id="9333"></path><path d="M503.3984 733.12256c0 8.0896-6.10304 15.50336-11.01824 15.54432-3.15392 0.02048-11.01824-7.4752-11.01824-15.54432 0-8.0896 4.93568-14.6432 11.01824-14.6432 6.08256 0 11.01824 6.5536 11.01824 14.6432z" fill="#C5C9B2" p-id="9334"></path><path d="M475.648 672.93184c0 8.0896-6.10304 15.50336-11.01824 15.54432-3.15392 0.02048-11.01824-7.4752-11.01824-15.54432 0-8.0896 4.93568-14.6432 11.01824-14.6432 6.08256 0 11.01824 6.5536 11.01824 14.6432zM475.648 577.80224c0 8.0896-6.10304 15.50336-11.01824 15.54432-3.15392 0.02048-11.01824-7.4752-11.01824-15.54432 0-8.0896 4.93568-14.6432 11.01824-14.6432 6.08256 0 11.01824 6.5536 11.01824 14.6432zM599.32672 645.07904c0 8.0896-6.10304 15.50336-11.01824 15.54432-3.15392 0.02048-11.01824-7.4752-11.01824-15.54432 0-8.0896 4.93568-14.6432 11.01824-14.6432 6.08256 0.02048 11.01824 6.57408 11.01824 14.6432zM725.34016 613.13024c0 8.0896-6.10304 15.50336-11.01824 15.54432-3.15392 0.02048-11.01824-7.4752-11.01824-15.54432 0-8.0896 4.93568-14.6432 11.01824-14.6432 6.08256 0 11.01824 6.5536 11.01824 14.6432z" fill="#010000" p-id="9335"></path><path d="M766.93504 547.61472c0 8.0896-6.10304 15.50336-11.01824 15.54432-3.15392 0.02048-11.01824-7.4752-11.01824-15.54432 0-8.0896 4.93568-14.6432 11.01824-14.6432s11.01824 6.5536 11.01824 14.6432z" fill="#C5C9B2" p-id="9336"></path><path d="M814.2848 592.896c0 8.0896-6.10304 15.50336-11.01824 15.54432-3.15392 0.02048-11.01824-7.4752-11.01824-15.54432 0-8.0896 4.93568-14.6432 11.01824-14.6432 6.08256 0 11.01824 6.5536 11.01824 14.6432zM613.66272 245.47328c0 8.0896-6.10304 15.50336-11.01824 15.54432-3.15392 0.02048-11.01824-7.4752-11.01824-15.54432s4.93568-14.6432 11.01824-14.6432c6.08256 0.02048 11.01824 6.57408 11.01824 14.6432zM693.67808 290.85696c0 8.0896-6.10304 15.50336-11.01824 15.54432-3.15392 0.02048-11.01824-7.4752-11.01824-15.54432s4.93568-14.6432 11.01824-14.6432c6.08256 0 11.01824 6.5536 11.01824 14.6432zM591.62624 321.04448c0 8.0896-6.10304 15.50336-11.01824 15.54432-3.15392 0.02048-11.01824-7.4752-11.01824-15.54432s4.93568-14.6432 11.01824-14.6432c6.08256 0 11.01824 6.5536 11.01824 14.6432zM777.97376 366.96064c0 8.0896-6.10304 15.50336-11.01824 15.54432-3.15392 0.02048-11.01824-7.4752-11.01824-15.54432s4.93568-14.6432 11.01824-14.6432c6.08256 0 11.01824 6.5536 11.01824 14.6432z" fill="#010000" p-id="9337"></path><path d="M578.12992 400.7936c0 8.0896-6.10304 15.50336-11.01824 15.54432-3.15392 0.02048-11.01824-7.4752-11.01824-15.54432s4.93568-14.6432 11.01824-14.6432 11.01824 6.57408 11.01824 14.6432z" fill="#C5C9B2" p-id="9338"></path><path d="M719.52384 410.39872c0 8.0896-6.10304 15.50336-11.01824 15.54432-3.15392 0.02048-11.01824-7.4752-11.01824-15.54432s4.93568-14.6432 11.01824-14.6432 11.01824 6.57408 11.01824 14.6432zM518.63552 230.37952c0 8.0896-6.10304 15.50336-11.01824 15.54432-3.15392 0.02048-11.01824-7.4752-11.01824-15.54432 0-8.0896 4.93568-14.6432 11.01824-14.6432 6.08256 0.02048 11.01824 6.57408 11.01824 14.6432zM378.2656 275.7632c0 8.0896-6.10304 15.50336-11.01824 15.54432-3.15392 0.02048-11.01824-7.4752-11.01824-15.54432s4.93568-14.6432 11.01824-14.6432c6.08256 0 11.01824 6.5536 11.01824 14.6432zM280.43264 366.96064c0 8.0896-6.10304 15.50336-11.01824 15.54432-3.15392 0.02048-11.01824-7.4752-11.01824-15.54432s4.93568-14.6432 11.01824-14.6432 11.01824 6.5536 11.01824 14.6432zM703.2832 668.44672c0 8.0896-6.10304 15.50336-11.01824 15.54432-3.15392 0.02048-11.01824-7.4752-11.01824-15.54432 0-8.0896 4.93568-14.6432 11.01824-14.6432s11.01824 6.5536 11.01824 14.6432zM777.97376 693.6576c0 8.0896-6.10304 15.50336-11.01824 15.54432-3.15392 0.02048-11.01824-7.4752-11.01824-15.54432 0-8.0896 4.93568-14.6432 11.01824-14.6432 6.08256 0 11.01824 6.5536 11.01824 14.6432zM588.30848 754.66752c0 8.0896-6.10304 15.50336-11.01824 15.54432-3.15392 0.02048-11.01824-7.4752-11.01824-15.54432 0-8.0896 4.93568-14.6432 11.01824-14.6432s11.01824 6.57408 11.01824 14.6432z" fill="#010000" p-id="9339"></path><path d="M551.424 708.75136c0 8.0896-6.10304 15.50336-11.01824 15.54432-3.15392 0.02048-11.01824-7.4752-11.01824-15.54432 0-8.0896 4.93568-14.6432 11.01824-14.6432s11.01824 6.5536 11.01824 14.6432zM599.32672 825.61024c0 8.0896-6.10304 15.50336-11.01824 15.54432-3.15392 0.02048-11.01824-7.4752-11.01824-15.54432 0-8.0896 4.93568-14.6432 11.01824-14.6432 6.08256 0 11.01824 6.5536 11.01824 14.6432z" fill="#C5C9B2" p-id="9340"></path><path d="M729.12896 739.57376c0 8.0896-6.10304 15.50336-11.01824 15.54432-3.15392 0.02048-11.01824-7.4752-11.01824-15.54432 0-8.0896 4.93568-14.6432 11.01824-14.6432 6.08256 0.02048 11.01824 6.57408 11.01824 14.6432z" fill="#010000" p-id="9341"></path><path d="M653.86496 758.33344c0 8.0896-6.10304 15.50336-11.01824 15.54432-3.15392 0.02048-11.01824-7.4752-11.01824-15.54432 0-8.0896 4.93568-14.6432 11.01824-14.6432s11.01824 6.5536 11.01824 14.6432z" fill="#C5C9B2" p-id="9342"></path><path d="M626.11456 698.14272c0 8.0896-6.10304 15.50336-11.01824 15.54432-3.15392 0.02048-11.01824-7.4752-11.01824-15.54432 0-8.0896 4.93568-14.6432 11.01824-14.6432s11.01824 6.5536 11.01824 14.6432z" fill="#010000" p-id="9343"></path><path d="M311.02976 672.93184c0 8.0896-6.10304 15.50336-11.01824 15.54432-3.15392 0.02048-11.01824-7.4752-11.01824-15.54432 0-8.0896 4.93568-14.6432 11.01824-14.6432 6.08256 0 11.01824 6.5536 11.01824 14.6432z" fill="#C5C9B2" p-id="9344"></path><path d="M248.46336 698.71616c0 8.0896-6.10304 15.50336-11.01824 15.54432-3.15392 0.02048-11.01824-7.4752-11.01824-15.54432 0-8.0896 4.93568-14.6432 11.01824-14.6432s11.01824 6.57408 11.01824 14.6432zM297.02144 779.22304c0 8.0896-6.10304 15.50336-11.01824 15.54432-3.15392 0.02048-11.01824-7.4752-11.01824-15.54432 0-8.0896 4.93568-14.6432 11.01824-14.6432 6.08256 0 11.01824 6.5536 11.01824 14.6432zM448.86016 802.18112c0 8.0896-6.10304 15.50336-11.01824 15.54432-3.15392 0.02048-11.01824-7.4752-11.01824-15.54432 0-8.0896 4.93568-14.6432 11.01824-14.6432 6.08256 0 11.01824 6.5536 11.01824 14.6432z" fill="#010000" p-id="9345"></path><path d="M362.57792 782.88896c0 8.0896-6.10304 15.50336-11.01824 15.54432-3.15392 0.02048-11.01824-7.4752-11.01824-15.54432 0-8.0896 4.93568-14.6432 11.01824-14.6432 6.08256 0 11.01824 6.5536 11.01824 14.6432z" fill="#C5C9B2" p-id="9346"></path></svg>