<?xml version="1.0" standalone="no"?><!DOCTYPE svg PUBLIC "-//W3C//DTD SVG 1.1//EN" "http://www.w3.org/Graphics/SVG/1.1/DTD/svg11.dtd"><svg t="1665867737219" class="icon" viewBox="0 0 1024 1024" version="1.1" xmlns="http://www.w3.org/2000/svg" p-id="9122" xmlns:xlink="http://www.w3.org/1999/xlink" width="200" height="200"><path d="M512 512m-407.4496 0a407.4496 407.4496 0 1 0 814.8992 0 407.4496 407.4496 0 1 0-814.8992 0Z" fill="#406C0D" p-id="9123"></path><path d="M512 921.6c-225.85344 0-409.6-183.74656-409.6-409.6S286.14656 102.4 512 102.4s409.6 183.74656 409.6 409.6-183.74656 409.6-409.6 409.6z m0-814.8992C288.52224 106.7008 106.7008 288.52224 106.7008 512S288.52224 917.2992 512 917.2992 917.2992 735.47776 917.2992 512 735.47776 106.7008 512 106.7008z" fill="#4E8F00" p-id="9124"></path><path d="M512 512m-391.14752 0a391.14752 391.14752 0 1 0 782.29504 0 391.14752 391.14752 0 1 0-782.29504 0Z" fill="#F7F5CB" p-id="9125"></path><path d="M513.24928 511.09888m-349.10208 0a349.10208 349.10208 0 1 0 698.20416 0 349.10208 349.10208 0 1 0-698.20416 0Z" fill="#FC4422" p-id="9126"></path><path d="M257.20832 565.94432c-41.00096 8.62208-79.0528-23.57248-77.68064-65.45408 4.97664-150.69184 111.90272-284.20096 266.0352-316.64128s305.78688 46.6944 371.05664 182.62016c18.14528 37.7856-3.70688 82.57536-44.72832 91.21792L522.5472 503.808l-265.33888 62.13632z" fill="#FE693F" p-id="9127"></path><path d="M522.56768 418.34496c-1.06496 9.03168-9.78944 16.11776-9.78944 16.11776s-7.65952-7.82336-9.03168-16.85504c-1.45408-9.48224 3.072-16.384 9.78944-16.11776 6.28736 0.24576 10.11712 7.53664 9.03168 16.85504z" p-id="9128"></path><path d="M472.73984 426.53696c3.60448 8.35584-0.4096 18.86208-0.4096 18.86208s-10.52672-2.94912-16.24064-10.07616c-6.00064-7.49568-5.5296-15.72864 0.4096-18.86208 5.55008-2.92864 12.53376 1.45408 16.24064 10.07616zM522.50624 281.7024c-1.16736 10.0352-10.87488 17.92-10.87488 17.92s-8.4992-8.68352-10.0352-18.71872c-1.61792-10.5472 3.39968-18.20672 10.87488-17.92 6.98368 0.26624 11.24352 8.35584 10.0352 18.71872z" p-id="9129"></path><path d="M433.68448 458.52672c7.29088 5.4272 9.07264 16.54784 9.07264 16.54784s-10.58816 2.72384-19.10784-0.59392c-8.94976-3.4816-12.65664-10.8544-9.07264-16.54784 3.35872-5.3248 11.59168-4.99712 19.10784 0.59392z" p-id="9130"></path><path d="M415.86688 505.77408c9.03168 1.06496 16.11776 9.78944 16.11776 9.78944s-7.82336 7.65952-16.85504 9.03168c-9.48224 1.45408-16.384-3.072-16.11776-9.78944 0.24576-6.26688 7.51616-10.11712 16.85504-9.03168z" p-id="9131"></path><path d="M424.0384 555.60192c8.35584-3.60448 18.86208 0.4096 18.86208 0.4096s-2.94912 10.52672-10.07616 16.24064c-7.49568 6.00064-15.72864 5.5296-18.86208-0.4096-2.92864-5.55008 1.45408-12.53376 10.07616-16.24064z" p-id="9132"></path><path d="M456.04864 594.65728c5.4272-7.29088 16.54784-9.07264 16.54784-9.07264s2.72384 10.58816-0.59392 19.10784c-3.4816 8.94976-10.8544 12.65664-16.54784 9.07264-5.3248-3.33824-5.0176-11.5712 0.59392-19.10784z" p-id="9133"></path><path d="M503.27552 612.49536c1.06496-9.03168 9.78944-16.11776 9.78944-16.11776s7.65952 7.82336 9.03168 16.85504c1.45408 9.48224-3.072 16.384-9.78944 16.11776-6.26688-0.24576-10.11712-7.53664-9.03168-16.85504z" p-id="9134"></path><path d="M553.10336 604.30336c-3.60448-8.35584 0.4096-18.86208 0.4096-18.86208s10.52672 2.94912 16.24064 10.07616c6.00064 7.49568 5.5296 15.72864-0.4096 18.86208-5.55008 2.92864-12.51328-1.45408-16.24064-10.07616z" p-id="9135"></path><path d="M592.1792 572.3136c-7.29088-5.4272-9.07264-16.54784-9.07264-16.54784s10.58816-2.72384 19.10784 0.59392c8.94976 3.4816 12.65664 10.8544 9.07264 16.54784-3.35872 5.3248-11.59168 4.99712-19.10784-0.59392z" p-id="9136"></path><path d="M609.9968 525.06624c-9.03168-1.06496-16.11776-9.78944-16.11776-9.78944s7.82336-7.65952 16.85504-9.03168c9.48224-1.45408 16.384 3.072 16.11776 9.78944-0.24576 6.26688-7.53664 10.11712-16.85504 9.03168z" p-id="9137"></path><path d="M601.8048 475.2384c-8.35584 3.60448-18.86208-0.4096-18.86208-0.4096s2.94912-10.52672 10.07616-16.24064c7.49568-6.00064 15.72864-5.5296 18.86208 0.4096 2.92864 5.55008-1.45408 12.53376-10.07616 16.24064z" p-id="9138"></path><path d="M569.81504 436.18304c-5.4272 7.29088-16.54784 9.07264-16.54784 9.07264s-2.72384-10.58816 0.59392-19.10784c3.4816-8.94976 10.8544-12.65664 16.54784-9.07264 5.3248 3.33824 5.0176 11.5712-0.59392 19.10784z" p-id="9139"></path><path d="M441.56928 292.864c2.51904 9.78944-3.70688 20.64384-3.70688 20.64384s-11.0592-5.03808-16.11776-13.84448c-5.30432-9.25696-3.3792-18.20672 3.70688-20.64384 6.61504-2.27328 13.5168 3.74784 16.11776 13.84448z" p-id="9140"></path><path d="M370.09408 332.43136c5.87776 8.23296 3.9936 20.5824 3.9936 20.5824s-12.12416-0.7168-20.00896-7.10656c-8.2944-6.71744-9.70752-15.7696-3.9936-20.5824 5.34528-4.5056 13.94688-1.37216 20.00896 7.10656z" p-id="9141"></path><path d="M317.68576 395.10016c8.43776 5.55008 11.12064 17.75616 11.12064 17.75616s-11.5712 3.70688-21.23776 0.57344c-10.15808-3.2768-14.7456-11.22304-11.12064-17.75616 3.35872-6.12352 12.51328-6.30784 21.23776-0.57344z" p-id="9142"></path><path d="M291.34848 472.43264c9.87136 2.12992 16.77312 12.55424 16.77312 12.55424s-9.46176 7.61856-19.59936 8.192c-10.6496 0.59392-17.79712-5.16096-16.77312-12.55424 0.94208-6.92224 9.40032-10.40384 19.59936-8.192z" p-id="9143"></path><path d="M294.64576 554.06592c9.99424-1.55648 20.1728 5.67296 20.1728 5.67296s-6.08256 10.52672-15.33952 14.70464c-9.728 4.38272-18.45248 1.59744-20.1728-5.67296-1.61792-6.79936 5.03808-13.08672 15.33952-14.70464z" p-id="9144"></path><path d="M327.12704 629.02272c8.74496-5.05856 20.86912-1.98656 20.86912-1.98656s-1.88416 12.00128-9.0112 19.23072c-7.49568 7.59808-16.62976 8.15104-20.86912 1.98656-3.95264-5.75488-0.02048-14.00832 9.0112-19.23072z" p-id="9145"></path><path d="M384.43008 687.26784c6.3488-7.86432 18.75968-9.35936 18.75968-9.35936s2.56 11.8784-1.47456 21.1968c-4.25984 9.78944-12.57472 13.59872-18.75968 9.35936-5.77536-3.95264-5.05856-13.08672 1.47456-21.1968z" p-id="9146"></path><path d="M458.87488 720.93696c3.09248-9.6256 14.1312-15.48288 14.1312-15.48288s6.67648 10.15808 6.2464 20.29568c-0.45056 10.6496-6.84032 17.2032-14.1312 15.48288-6.79936-1.59744-9.44128-10.36288-6.2464-20.29568z" p-id="9147"></path><path d="M459.6736 724.0704c1.61792-5.07904 7.43424-8.15104 7.43424-8.15104s3.52256 5.34528 3.29728 10.69056c-0.22528 5.61152-3.60448 9.07264-7.43424 8.15104-3.584-0.83968-4.97664-5.46816-3.29728-10.69056zM382.1568 694.25152c2.74432-4.32128 8.9088-5.75488 8.9088-5.75488s1.96608 5.8368 0.45056 10.752c-1.59744 5.16096-5.57056 7.53664-8.9088 5.75488-3.13344-1.67936-3.2768-6.30784-0.45056-10.752zM322.60096 633.50784c4.13696-3.01056 10.40384-2.08896 10.40384-2.08896s-0.3072 6.144-3.52256 10.15808c-3.3792 4.21888-7.94624 4.97664-10.40384 2.08896-2.29376-2.68288-0.75776-7.0656 3.52256-10.15808zM290.16064 556.83072c4.97664-1.16736 10.40384 2.10944 10.40384 2.10944s-2.68288 5.5296-7.18848 7.9872c-4.75136 2.58048-9.25696 1.49504-10.40384-2.10944-1.06496-3.3792 2.048-6.79936 7.18848-7.9872zM284.50816 472.92416c5.12 0 9.64608 4.4032 9.64608 4.4032s-3.85024 4.79232-8.8064 6.16448c-5.20192 1.4336-9.35936-0.63488-9.64608-4.4032-0.28672-3.52256 3.52256-6.16448 8.8064-6.16448zM310.53824 393.33888c4.7104 2.00704 7.12704 7.84384 7.12704 7.84384s-5.4272 2.88768-10.52672 2.19136c-5.34528-0.73728-8.35584-4.25984-7.12704-7.84384 1.1264-3.35872 5.67296-4.25984 10.52672-2.19136zM362.98752 327.12704c3.9936 3.19488 4.79232 9.46176 4.79232 9.46176s-6.00064 1.3312-10.73152-0.69632c-4.95616-2.12992-6.92224-6.32832-4.79232-9.46176 1.96608-2.90816 6.59456-2.58048 10.73152 0.69632zM434.40128 287.8464c0.9216 5.03808-2.62144 10.28096-2.62144 10.28096s-5.40672-2.94912-7.61856-7.5776c-2.33472-4.87424-1.04448-9.3184 2.62144-10.28096 3.42016-0.90112 6.67648 2.37568 7.61856 7.5776zM519.0656 274.35008c-0.49152 5.09952-5.3248 9.17504-5.3248 9.17504s-4.38272-4.32128-5.26336-9.37984c-0.9216-5.3248 1.536-9.23648 5.3248-9.17504 3.52256 0.06144 5.77536 4.11648 5.26336 9.37984z" fill="#D07B52" p-id="9148"></path><path d="M540.44672 725.54496c-0.59392-10.09664 7.59808-19.53792 7.59808-19.53792s9.89184 7.0656 13.14816 16.6912c3.42016 10.09664-0.18432 18.51392-7.59808 19.53792-6.92224 0.94208-12.55424-6.28736-13.14816-16.6912z" p-id="9149"></path><path d="M618.1888 700.43648c-4.17792-9.19552 0.04096-20.97152 0.04096-20.97152s11.776 3.03104 18.26816 10.83392c6.84032 8.192 6.49216 17.34656-0.04096 20.97152-6.10304 3.3792-13.94688-1.3312-18.26816-10.83392z" p-id="9150"></path><path d="M681.6768 649.03168c-7.22944-7.0656-7.51616-19.57888-7.51616-19.57888s12.06272-1.41312 20.95104 3.52256c9.3184 5.18144 12.30848 13.84448 7.51616 19.57888-4.48512 5.34528-13.49632 3.76832-20.95104-3.52256z" p-id="9151"></path><path d="M722.39104 578.19136c-9.27744-3.9936-14.04928-15.5648-14.04928-15.5648s10.752-5.65248 20.80768-4.25984c10.56768 1.47456 16.46592 8.47872 14.04928 15.5648-2.2528 6.61504-11.22304 8.3968-20.80768 4.25984z" p-id="9152"></path><path d="M734.84288 497.4592c-10.09664-0.38912-18.71872-9.44128-18.71872-9.44128s7.9872-9.15456 17.87904-11.4688c10.38336-2.43712 18.41152 1.96608 18.71872 9.44128 0.28672 6.9632-7.45472 11.85792-17.87904 11.4688z" p-id="9153"></path><path d="M717.37344 417.64864c-9.56416 3.2768-20.86912-2.06848-20.86912-2.06848s4.15744-11.42784 12.55424-17.14176c8.8064-6.02112 17.89952-4.79232 20.86912 2.06848 2.7648 6.41024-2.68288 13.76256-12.55424 17.14176z" p-id="9154"></path><path d="M672.33792 349.4912c-7.74144 6.51264-20.21376 5.59104-20.21376 5.59104s-0.22528-12.14464 5.5296-20.52096c6.06208-8.78592 14.97088-10.91584 20.21376-5.59104 4.89472 4.97664 2.4576 13.80352-5.5296 20.52096z" p-id="9155"></path><path d="M605.77792 302.12096c-4.87424 8.84736-16.83456 12.4928-16.83456 12.4928s-4.58752-11.24352-2.23232-21.13536c2.47808-10.38336 10.0352-15.5648 16.83456-12.4928 6.3488 2.88768 7.24992 12.00128 2.23232 21.13536z" p-id="9156"></path><path d="M603.36128 295.23968c-3.05152 4.11648-9.29792 5.12-9.29792 5.12s-1.536-5.95968 0.3072-10.752c1.9456-5.03808 6.08256-7.12704 9.29792-5.12 3.01056 1.88416 2.84672 6.51264-0.3072 10.752zM676.1472 341.77024c-3.05152 4.11648-9.29792 5.12-9.29792 5.12s-1.536-5.95968 0.3072-10.752c1.9456-5.03808 6.08256-7.12704 9.29792-5.12 3.01056 1.88416 2.84672 6.51264-0.3072 10.752zM729.88672 577.35168c-4.89472-1.45408-7.9872-6.98368-7.9872-6.98368s5.07904-3.4816 10.19904-3.3792c5.40672 0.12288 8.78592 3.2768 7.9872 6.98368-0.73728 3.46112-5.14048 4.89472-10.19904 3.3792zM741.94944 493.3632c-5.12 0.14336-9.76896-4.15744-9.76896-4.15744s3.72736-4.89472 8.64256-6.38976c5.16096-1.57696 9.35936 0.38912 9.76896 4.15744 0.36864 3.52256-3.35872 6.2464-8.64256 6.38976zM723.21024 411.58656c-4.64896 2.10944-10.60864-0.04096-10.60864-0.04096s1.536-5.95968 5.48864-9.23648c4.15744-3.46112 8.78592-3.2768 10.60864 0.04096 1.69984 3.072-0.67584 7.04512-5.48864 9.23648zM544.03072 729.3952c-0.96256-5.24288 2.72384-10.69056 2.72384-10.69056s5.61152 3.072 7.94624 7.8848c2.43712 5.05856 1.08544 9.68704-2.72384 10.69056-3.56352 0.9216-6.9632-2.47808-7.94624-7.8848zM624.68096 705.06496c-2.37568-4.77184-0.34816-11.03872-0.34816-11.03872s6.2464 1.39264 9.80992 5.36576c3.74784 4.17792 3.72736 9.0112 0.34816 11.03872-3.15392 1.88416-7.35232-0.45056-9.80992-5.36576z" fill="#D07B52" p-id="9157"></path><path d="M623.34976 702.464c-2.37568-4.77184-0.34816-11.03872-0.34816-11.03872s6.2464 1.39264 9.80992 5.36576c3.74784 4.17792 3.72736 9.0112 0.34816 11.03872-3.15392 1.90464-7.3728-0.45056-9.80992-5.36576zM557.01504 603.7504c-0.94208-4.15744 1.82272-8.64256 1.82272-8.64256s4.58752 2.2528 6.59456 6.02112c2.10944 3.95264 1.18784 7.70048-1.82272 8.64256-2.78528 0.88064-5.61152-1.7408-6.59456-6.02112zM505.91744 615.19872c0.4096-4.23936 4.42368-7.61856 4.42368-7.61856s3.64544 3.584 4.38272 7.80288c0.75776 4.42368-1.29024 7.68-4.42368 7.61856-2.94912-0.06144-4.8128-3.42016-4.38272-7.80288zM457.25696 597.07392c2.9696-3.05152 8.23296-3.1744 8.23296-3.1744s0.6144 5.07904-1.45408 8.82688c-2.17088 3.93216-5.81632 5.20192-8.23296 3.1744-2.2528-1.88416-1.61792-5.69344 1.45408-8.82688zM425.39008 557.91616c4.03456-1.3312 8.76544 0.98304 8.76544 0.98304s-1.82272 4.77184-5.38624 7.14752c-3.74784 2.47808-7.55712 1.92512-8.76544-0.98304-1.1264-2.72384 1.20832-5.79584 5.38624-7.14752zM414.0032 507.84256c4.11648 1.04448 6.88128 5.5296 6.88128 5.5296s-4.096 3.072-8.35584 3.15392c-4.48512 0.1024-7.41376-2.41664-6.88128-5.5296 0.49152-2.88768 4.096-4.23936 8.35584-3.15392zM429.11744 458.3424c3.44064 2.49856 4.32128 7.68 4.32128 7.68s-4.93568 1.3312-8.92928-0.18432c-4.1984-1.57696-5.98016-4.99712-4.32128-7.68 1.536-2.49856 5.38624-2.39616 8.92928 0.18432zM468.02944 421.84704c2.47808 3.46112 1.67936 8.66304 1.67936 8.66304s-5.09952-0.28672-8.41728-2.99008c-3.4816-2.82624-4.096-6.63552-1.67936-8.66304 2.2528-1.90464 5.85728-0.59392 8.41728 2.99008zM565.9648 431.47264c-2.88768 3.13344-8.13056 3.42016-8.13056 3.42016s-0.75776-5.05856 1.20832-8.86784c2.048-3.9936 5.65248-5.36576 8.13056-3.42016 2.29376 1.82272 1.76128 5.65248-1.20832 8.86784zM519.41376 412.99968c0.02048 4.25984-3.64544 8.02816-3.64544 8.02816s-3.9936-3.19488-5.14048-7.31136c-1.20832-4.32128 0.512-7.7824 3.64544-8.02816 2.92864-0.24576 5.12 2.92864 5.14048 7.31136zM603.19744 470.05696c-3.8912 1.72032-8.82688-0.12288-8.82688-0.12288s1.3312-4.93568 4.64896-7.63904c3.4816-2.84672 7.33184-2.6624 8.82688 0.12288 1.39264 2.58048-0.63488 5.85728-4.64896 7.63904zM614.5024 521.91232c-4.21888-0.57344-7.45472-4.7104-7.45472-4.7104s3.72736-3.50208 7.94624-4.07552c4.44416-0.59392 7.63904 1.57696 7.45472 4.7104-0.16384 2.92864-3.60448 4.64896-7.94624 4.07552zM599.06048 572.98944c-3.87072-1.76128-5.79584-6.656-5.79584-6.656s4.56704-2.29376 8.78592-1.61792c4.44416 0.69632 6.8608 3.6864 5.79584 6.656-1.00352 2.74432-4.79232 3.42016-8.78592 1.61792z" fill="#D07B52" p-id="9158"></path></svg>